<svg xmlns="http://www.w3.org/2000/svg" width="66" height="66" fill="none"><path stroke="#00ABE6" stroke-miterlimit="10" stroke-width="2" d="M26.38 27.697c6.752 6.786 6.462 18.08 6.462 18.08s-11.237.29-17.99-6.496C8.1 32.495 8.39 21.201 8.39 21.201s11.237-.29 17.99 6.496Z"/><path stroke="#00ABE6" stroke-miterlimit="10" stroke-width="2" d="M50.836 39.281c-6.753 6.786-17.99 6.495-17.99 6.495s-.29-11.293 6.463-18.079c6.75-6.786 17.989-6.494 17.989-6.494s.29 11.292-6.462 18.078ZM32.84 45.775V64.37"/><path fill="#fff" stroke="#00ABE6" stroke-width="2" d="M40.321 17.043c0 4.158-3.352 7.52-7.477 7.52s-7.477-3.362-7.477-7.52c0-4.157 3.352-7.519 7.477-7.519s7.477 3.362 7.477 7.52Z"/><path stroke="#00ABE6" stroke-miterlimit="22.926" stroke-width="2" d="M32.843 1C15.268 1 1 15.337 1 33s14.268 32 31.843 32c17.574 0 31.844-14.338 31.844-32 0-17.663-14.27-32-31.844-32Z"/></svg>