<svg xmlns="http://www.w3.org/2000/svg" width="65" height="65" fill="none"><path stroke="#00ABE6" stroke-miterlimit="10" stroke-width="1.6" d="M41.874 46.269v1.768l-.217 4.245c-.04.525-.08 1.065-.182 1.57a7.078 7.078 0 0 1-.172.704c-.146.477-.364.798-.633 1.145a1.764 1.764 0 0 1-.494.41c-.788.458-1.474.213-2.315.341-.265.038-.577.016-.858.016l-.85.026c-.575.03-1.199-.018-1.78 0-.153.005-.246.029-.438.028h-1.314c-.256 0-.526.015-.798.026h-.933l-.018-.001c-.395-.031-.87-.02-1.29-.025-.162-.002-.225-.032-.408-.03-.441.003-.95-.057-1.287-.054l-.845-.03c-.327-.037-.993-.029-1.247-.067-.35-.05-.445-.07-.702-.203-.35-.184-.763-.434-.948-.803-.203-.403-.488-3.314-.552-3.881l-.168-1.612c-.038-.556-.11-1.03-.11-1.64 0-.613-.027-1.167-.027-1.753v-.436c-.002-.18.028-.237.028-.41l-.001-.44c-.002-.182.025-.248.027-.408a7.998 7.998 0 0 1 .197-1.58c.27-1.256.738-2.792 1.402-3.909.167-.284.355-.53.551-.789.067-.09.124-.162.196-.243l2.027-2.16c.055-.048.066-.048.122-.099l.472-.404c.108-.085.146-.142.242-.222.13-.109.11-.089.22-.22.408-.487.84-1.055.84-1.785 0-.69.02-1.62-.175-2.208-.034-.1-.076-.27-.123-.343-.213-.323-.305-.265-.305-1.037 0-.54.573-1.04.573-1.504 0-.487-.116-.68-.262-1.025-.119-.277-.286-.663-.286-.972 0-.286.2-.828.292-1.104.418-1.262.302-.712-.084-2.085-.095-.345-.343-.668-.343-1.024 0-.335.049-.702.165-.933.052-.108.12-.223.185-.332.323-.53.523-1.158.971-1.602.092-.091.29-.233.335-.322.097-.194.01-1.057.057-1.367l.037-2.012c-.098-.023-.198-.103-.277-.16-.402-.296-.306-.225-1.036-.225-.01.15-.074.37-.101.5-.165.773-.4 1.49-.736 2.191-.191.397-.374.784-.612 1.142-.078.116-.146.222-.235.34l-.416.458c-.06.063-.065.088-.124.15-.287.31-.502.649-.837.915-.395.314-.918.08-1.23-.23a.927.927 0 0 1-.231-.366c-.18-.428-.16-.683.105-1.06.133-.188.26-.276.388-.434.095-.117.202-.354.315-.504.578-.773.233-.823.627-1.645.023-.047.037-.064.068-.123.134-.248.447-.923.447-1.194 0-.727-.001-1.45-.116-2.156-.056-.348-.158-.302-.158-1.02-.236 0-.31.053-.52.053-.265 0-.394-.058-.67-.098-.68-.094-1.76-.063-1.95-.649-.174-.544-.227-1.204-.227-1.796v-.014c0-.292.012-1.03.13-1.225.466-.757 1.71-.53 2.055-.68.198-.086.355-.09.533-.15.249-.083.947-.094 1.277-.093.26 0 .407-.029.658-.028 1.345.006 2.638-.084 3.997-.082.256 0 .4-.028.656-.028.228.002.458 0 .685 0 .244.002.392-.026.644-.027h.014c.49.001 1.532.054 1.947.105.39.05.71.139 1.08.26.718.241 1.31.47 1.856.882.366.278 1.11 1.01 1.11 1.598 0 .203-.122.533-.2.677-.282.516-1.01.7-1.52 1.981-.17.428-.372.826-.468 1.285-.024.114-.038.277-.05.387-.055.422-.062.233.06.586.094.271.04.435.04.723.003.185.03.303.03.519-.002.643.053 2.022.107 2.63.013.156-.012.101.047.226.147.32.51 3.155.567 3.54.185 1.27.364 2.565.574 3.83.1.605.224 1.249.34 1.85l1.264 6.425c.382 1.887.672 3.76.925 5.67l.226 1.962a41.52 41.52 0 0 1 .168 3.897Z"/><path stroke="#00ABE6" stroke-miterlimit="22.926" stroke-width="1.756" d="M32.5 1C15.116 1 1 15.113 1 32.5S15.115 64 32.5 64c17.386 0 31.502-14.114 31.502-31.5C64.002 15.112 49.886 1 32.501 1Z"/></svg>