<svg xmlns="http://www.w3.org/2000/svg" width="64" height="64" fill="none"><path fill="#00ABE6" fill-rule="evenodd" d="M64 31.706c0 3.467-.548 7.492-1.706 10.634-.867 2.346-1.529 3.924-2.8 6.059-1.277 2.137-3.036 4.404-4.73 6.1-.998 1-2.006 1.931-3.13 2.775l-3.52 2.39C43.743 62.286 37.849 64 32.763 64c-3.406 0-5.247-.115-8.464-.92l-2.256-.632c-.297-.088-.437-.168-.722-.262-.514-.173-.971-.358-1.429-.541-.47-.187-.943-.383-1.37-.6-.203-.104-.392-.203-.612-.305l-3.716-2.126-2.776-2.081c-.098-.09-.132-.138-.236-.223-.941-.757-1.89-1.759-2.752-2.633l-2.19-2.666c-.687-.937-2.518-3.798-2.963-4.847a8.15 8.15 0 0 0-.307-.673c-.343-.677-1.13-2.664-1.373-3.422-.084-.27-.136-.479-.23-.756-.17-.511-.295-1.047-.419-1.548-1.25-4.995-1.27-10.482-.015-15.477.952-3.78 2.154-6.328 4.16-9.622.446-.728 1.133-1.616 1.645-2.296.846-1.124 1.777-2.13 2.777-3.129 1.33-1.331 2.738-2.473 4.31-3.567l1.178-.79c1.284-.859 3.763-2.073 5.224-2.651l2.946-.992c6.725-1.96 14.145-1.583 20.653 1.02 2.055.822 4.744 2.198 6.478 3.498.204.154.38.27.572.414.191.145.353.264.563.42l2.145 1.795c.207.21.29.285.517.467l2.403 2.585c.906 1.038 2.17 2.811 2.884 4.008 1.742 2.925 2.959 5.854 3.747 9.182.496 2.102.866 4.508.866 7.076Zm-39.572-8.402c.334.498 2.097 2.13 2.64 2.675l7.316 7.318c.206.203.458.564.74.64.02-.928 1.137-1.906 2.081-1.49.788.347 1.394.745 1.33 1.75-.024.34-.104.549-.288.826l-.167.23c-.213.24-.861.473-.856.784.094.352.602.667.87.905.4.35 2.454 2.376 2.674 2.704.415-.276.643-.61.836-1.067.205-.491.112-.953.495-1.409.396-.47 1.03-.712 1.596-.576l.887.42c.621.541.698 1.608.198 2.311l-.158.17c-1.006.885-1.412.116-2.157.8l-.282.24c-.011.007-.026.022-.035.03-.015.012-.054.05-.068.065-.044.041-.092.09-.13.131.315.47 2.59 2.62 3.2 3.234.173.174.287.374.541.442.154-.103.15-.116.27-.256.008-.009.018-.026.027-.035l.32-.339c.523-.432 1.37-.485 1.965-.115l.214.178c.457.426.67.919.549 1.685-.053.338-.178.523-.373.74-.185.204-.405.377-.678.442.085.314 2.657 2.754 2.937 3.037.519.518.992.988 1.51 1.508.37.37 1.16 1.25 1.524 1.493l1.698-1.978c3.277-4.106 5.342-8.957 6.197-14.15.772-4.681.285-10.146-1.324-14.599a33.563 33.563 0 0 0-1.998-4.499c-.12-.224-.201-.352-.328-.59-.833-1.567-1.949-3-3.053-4.362-2.082-2.571-5.133-5.142-8.062-6.772l-2.47-1.272c-2.997-1.507-6.936-2.395-10.278-2.65-.489-.037-1.337-.046-1.792-.108-.806-.111-4.226.202-5.131.348-2.495.4-4.977 1.058-7.254 2.064-2.494 1.1-4.82 2.442-6.948 4.142l-1.014.826c-.316.307-.718.568-.965.936L23.62 22.533c.106-1.64.878-.743 1.449-1.602.061-.09.067-.118.124-.204l.112-.15c.01-.01.023-.026.03-.036l.768-1.07c.07-.1.17-.218.151-.426-.021-.226-.357-.55-.49-.757-.183-.28-.197-.585-.627-.546-.145.012-.602.19-.872.286-1.027.366-.616.838-1.452.972-.954.152-1.416-1.09-.89-1.609.064-.063.103-.079.19-.141.378-.267.672-.195 1.085 0 .299.141 1.249-.227 1.6-.395.014-.005.03-.015.043-.023l.17-.092c0-.443-.061-.556-.093-.937a11.545 11.545 0 0 1-.036-.901c-.414-.22-.747-.27-1.216-.356-.73-.137-.814.305-1.467.222-.787-.1-.997-1.02-.547-1.586.282-.35.678-.445 1.107-.23.685.34.225.522 1.075.699.16.034.227.036.387.076.17.043.218.08.326.084.594.033.57-.561.705-1.033.141-.505.417-.73.417-1.356-.417-.22-1.537-1.001-1.926-.95-1.94.26-1.462-2.271-.014-1.835.2.06.323.172.428.296.18.21.123.284.237.549.062.148.028.1.138.19.266.222 1.51.912 1.727.962l.758-1.012c.004-.002.108-.134.118-.145.636-.737.468-.692-.25-1.9-.51-.86-.749-.374-1.143-.956-.749-1.1.88-2.158 1.551-1.157.596.89-.324.527.5 1.863.654 1.056.27 1.004 1.389.522 1.123-.48.855-.39 1.107-1.777.31-1.73.027-.837-.145-1.62a.979.979 0 0 1 .178-.843c.787-1.039 2.43.37 1.431 1.3-.573.535-.394.54-.533 1.3-.365 2.017-.06.786 1.481 1.859.15.104.14.11.317.205.014-.008.035-.036.04-.025.004.007 1.064-.893 1.126-1.302.052-.333.006-.461.17-.683.224-.302.808-.494 1.25-.247.362.202.602.65.497 1.073-.227.914-1.031.515-1.516.979l-.29.3c-.479.513-.812.562-.715 1.178.093.612.028.904.028 1.55.338-.008.6-.092.869-.248.432-.254.27-.8 1.036-.871.475-.043.784.145.974.54.391.811-.412 1.58-1.197 1.328-.69-.223-.7-.02-1.342.183-.687.214-.574.724-.464 1.36.047.26.13.344.255.531.44 0 .816.04 1.089.035.482-.01.48-.247.804-.373 1.152-.454 1.844 1.114.918 1.707a1.03 1.03 0 0 1-.929.1c-.44-.168-.197-.428-.762-.492-.426-.048-.545-.034-1.055.008l.063.656c.02.336.005.71.005 1.052.29.155.656.31 1.008.433.51.18.49.34 1.138.137.911-.282 1.55.678 1.177 1.375a.965.965 0 0 1-1.693.03c-.327-.561-.347-.452-1.125-.742a.23.23 0 0 0-.032-.012c-.298-.116-.33-.17-.738-.17-.264.394-.302.593-.7 1.137-.41.562-.404.462.03 1.107.131.196.228.356.433.486.236.15.414.106.66.259.587.356.671 1.508-.097 1.736-.45.133-1.044.016-1.26-.445-.267-.572.15-.68-.36-1.345-.444-.578-.405-.866-1.274-.515-.022.007-.075.032-.094.04-.921.35-1.005-.154-.995 1.355 0 .108 0 .016-.01.2-.009.145-.023.297-.005.443.056.489.468.609.451 1.11l-.002.054-.01.1c-.093 1.086-1.771 1.028-1.915-.063-.104-.767.402-.682.529-1.154.065-.245.025-.599.04-.86.094-1.566-.332-.738-1.854-1.543-.302.264-.505.544-.758.882-.13.171-.21.29-.34.446-.177.21-.417.477-.502.75-.155.495.316 1.34-1.146 1.461Zm6.627-11.42c.877 0 .877-1.05.067-1.05-.519 0-.563 1.05-.067 1.05Zm-2.428 0c-.926 0-1.024 1.365-.114 1.479.179.024.377-.06.515-.158l.196-.196c.256-.42.005-1.126-.597-1.126Zm2.428 4.595c0-.811-.443-1.279-1.105-1.271-.415.004-.573.069-.82.264a1.19 1.19 0 0 0 .81 2.123c.583 0 1.115-.52 1.115-1.116Zm.789 45.75c2.43 0 4.752-.306 6.809-.739.905-.19 1.94-.482 2.78-.763 3.36-1.123 6.575-2.788 9.296-5.013.34-.28.64-.505.979-.79.31-.259.708-.556.939-.9-.344-.512-7.77-7.776-7.778-7.779-.283-.115-.925.068-1.168.062-.366-.009-.847.029-1.138.327-.39.402-.243 1.252-.397 1.764-.07.23-.027.067-.052.245-.209 1.477-.768 1.036.445 1.886.642.443 2.022 1.134 2.769 1.563.873.5.744-.026 1.912.13.15.018.124.009.287.09.62.313 1.05.845 1.05 1.646 0 .33-.335 1.062-.624 1.28-.085.062-.11.077-.2.13-.64.374-1.142.305-1.764-.003l-.462-.391c-.208-.275-.258-.386-.38-.736-.09-.267.003-.158-.16-.364l-.47-.386a1.515 1.515 0 0 0-.044-.021l-.334-.19c-.308-.156-.665-.303-.93-.515l-.875-.502c-.187-.094-.027-.009-.17-.094l-.86-.423c-.847-.235-.948.127-1.626.8l-.32.267c-1.049.736-1 .736.188 3.094l.09.17c.204.376.528.396.9.612 1.092.628 1.24 2.272.145 2.966-.205.129-.49.24-.628.26-.751.104-1.59-.223-1.875-.948l-.022-.072c-.161-.508-.159-.946.05-1.39.229-.494-.058-.832-.328-1.379l-.459-.985c-.145-.332-.31-.676-.694-.707-.41-.035-.764.158-1.145.25-1.613.392-2.063-.057-2.136 1.51-.032.753-.293 1.688.102 2.296.262.402.683.911.48 1.632-.235.85-.909 1.323-1.858 1.323-.51 0-1.35-.597-1.476-1.293-.065-.362-.11-.565.03-.939.1-.27.228-.59.459-.787.08-.071.003-.006.115-.081l.255-.207c.105-.14.17-.55.189-.676.075-.491.238-1.837-.073-2.213-.367-.442-1.14-.289-1.63-.427l-2.097-.496c-.499-.05-.552.143-.74.58-.208.476-1.186 2.497-1.178 2.949.01.402.495.485.195 1.548-.2.708-1.018 1.193-1.741 1.15-.15-.012-.459-.175-.667-.265-.67-.291-.872-.814-.912-1.523-.012-.247-.015-.365.106-.636l.421-.566c.466-.393.604-.33.88-.5l.078-.053c.262-.187.244-.33.37-.614.198-.456.39-.92.591-1.382.204-.467.405-.937.523-1.444-.613-.411-1.319-.76-1.95-1.134l-.163-.1c-.772-.454-.988-1.028-1.878-.393l-1.234.929c-.072.056-.085.071-.147.118-.682.535-.956.491-1.088 1.481-.087.665-.676 1.126-1.292 1.285l-.109.03c-.594.152-1.464-.284-1.727-.766-.422-.77-.31-1.777.435-2.332.093-.07.105-.074.208-.128l.404-.156c.95-.235.74.41 1.8-.39.231-.175.422-.315.639-.477 1.608-1.206 1.515-1.03.765-2.211-.233-.365-.787-1.456-1.006-1.62-.316-.238-.412-.165-.806-.18l-3.322-.177c-.838-.05-.48.468-1.448.732-.447.12-.923.132-1.307-.118l-.079-.054c-.49-.332-.996-1.086-.807-1.696.19-.617.395-1.044.984-1.315.561-.255 1.134-.258 1.665.116.222.153.15.131.297.293.536.583 1.552.418 2.284.485l.757.072c.32.006-.07-.042.25-.042.393 0 .844.168 1.116-.193.205-.27.054-1.483.832-2.913.183-.332.371-.38.138-.744-.117-.18-.236-.237-.423-.374l-.185-.14c-.094-.082-.074-.074-.135-.127l-.81-.635c-.827-.608-1.336-.047-2.207-.55-.566-.327-.982-1.223-.76-1.872.117-.34.276-.667.552-.896l.074-.06c.675-.502 1.607-.414 2.206.1l.034.032a1.599 1.599 0 0 1 .488.954c.03.193.027.382.14.582.131.244.428.427.631.618.152.14.115.084.273.184l.736.58c.446.335.822.731 1.412.572l1.216-.286c1.134-.29 2.215.415 1.495-.934-.109-.209-.194-.471-.323-.661-.118-.168-.268-.344-.491-.433-.495-.193-.881-.2-1.246-.984l-.072-.203-.008-.038c-.004-.008-.007-.026-.01-.035-.14-.564-.038-1.099.36-1.538l.186-.205c.203-.183.406-.256.723-.33.616-.138.865-.021 1.374.26.382.209.653.736.72 1.131.093.547-.229 1.058-.229 1.33 0 .255.8 1.749 1.026 2.055.455.611.574.386 1.321.34l1.043-.249c.352-.15.777-.31.79-.692.01-.352-.034-1.875-.299-2.316-.364-.6-1.145-.836-.9-2.1.033-.168.191-.522.338-.677 1.145-1.24 3.111-.42 3.064 1.03-.044 1.29-.758 1.17-.74 1.879.013.434.015 1.813.311 1.94l1.919-.297c.32-.055.282.006.713-.065.548-.088.622-.897.752-1.355l.178-.874-25.283-25.32c-.465.304-.863.91-1.247 1.348-1.292 1.486-2.299 3.15-3.303 4.835-1.277 2.138-2.42 5.37-2.952 7.81C1.08 31.953 1.796 38.49 4.47 44.505c1.117 2.513 2.627 4.762 4.339 6.884l1.32 1.502c.905.978 1.917 1.847 2.952 2.692 5.099 4.172 11.824 6.645 18.762 6.645Zm6.365-22.646-1.559-1.592c-.029.518-.267 1.05.288 1.221.306.094.314.003.638.15.198.09.407.204.633.221Zm5.118 5.12-1.95-1.986c.043.28.205.511.302.747.269.654.241 1.2.813 1.287l.835-.047Zm-16.274-.196c-.004-.018-.023-.05-.028-.038l-.407-.576c-.365-.252-.954-.202-1.241.118-.177.194-.293.567-.26.844.037.311.36.588.646.676l.07.018c.327.091.54.077.849-.167.32-.26.295-.493.344-.765.026-.141.063.076.026-.11Zm6.103.985c.005.112-.27.846.352 1.681.095.128.145.16.26.262.01.013.025.024.035.033.195.183.38.334.645.417.843.25 1.222.212 1.913-.174.279-.156.453-.332.664-.585l.164-.294c.069-.162.135-.258.173-.409.047-.193.057-.576.005-.878-.066-.394-.13-.592-.318-.863a2.224 2.224 0 0 0-3.191-.462l-.037.029c-.002.003-.124.131-.126.135l-.37.485c-.041.074-.079.166-.106.227-.167.377-.068.287-.063.396Zm-4.135 2.164-.383.044a5.923 5.923 0 0 0-.501.188l-.176.153c-.081.081-.074.071-.162.168-.629.713-.02 2.386 1.46 2.04l.457-.256c.442-.355.598-.987.388-1.511-.114-.286-.463-.647-.75-.757a1.727 1.727 0 0 0-.333-.07Z" clip-rule="evenodd"/></svg>