<svg xmlns="http://www.w3.org/2000/svg" width="66" height="66" fill="none"><path stroke="#00ABE6" stroke-miterlimit="22.926" stroke-width="2" d="M33 1C15.337 1 1 15.338 1 33c0 17.66 14.336 32 32 32 17.659 0 32-14.34 32-32-.001-17.662-14.342-32-32-32Z"/><path stroke="#00ABE6" stroke-miterlimit="22.926" stroke-width="2" d="M40.738 8.135c-1.445.337-8.856 4.402-10.301 5.361-2.815 1.87-6.655 4.567-7.768 7.898-1.713 5.112 3.13 9.827 6.281 13.777.783.98 1.536 1.952 2.244 3.013.63.949 1.503 2.281 1.931 3.326 1.18 2.856 1.973 5.224 1.474 8.64-.338 2.337-.95 4.023-1.921 5.963l-.876 1.752 6.775-5.842c.403-.527 1.467-1.517 2.345-2.704.4-.538.693-1.005 1.06-1.567.612-.938 1.201-2.322 1.495-3.552.51-2.107.058-4.468-1.008-6.253-.918-1.528-2.024-3.137-3.281-4.395l-2.368-2.677c-.83-.987-1.438-1.567-2.261-2.785-.704-1.037-1.287-1.994-1.745-3.302-1.809-5.187 1.486-9.9 4.749-13.42L39.4 9.422c.453-.463.983-.757 1.337-1.287Z"/><path stroke="#00ABE6" stroke-miterlimit="22.926" stroke-width="2" d="M41.895 11.605c-.296.079-1.685 1.22-2.024 1.548-.327.314-.57.575-.892.894-.913.91-1.685 1.925-2.269 3.095-2.438 4.86.796 8.912 3.739 12.523 1.57 1.926 2.48 2.984 3.957 4.982.264.36.483.666.73 1.055 5.06 7.878.423 12.535.128 13.646.66-.44 2.19-1.928 2.81-2.549.366-.364.515-.564.847-.943 4.367-5.017 3.617-9.05.024-13.855-.286-.378-.564-.691-.845-1.052l-2.449-2.913c-1.546-1.83-2.599-3.014-3.854-5.187-.45-.781-.753-1.572-1.069-2.505-1.55-4.612.944-7.78 1.167-8.739ZM15.087 26.324c0 3.082 1.2 5.225 2.629 7.359l3.016 4.03c1.401 1.729 3.865 4.903 4.942 6.832 1.663 2.981 2.864 6.087 2.196 9.806-.085.477-.237.892-.27 1.306.093-.112.02-.019.133-.184l.78-1.428c.771-1.547 1.715-4.254 1.715-6.065v-1.682c0-2.654-1.62-5.441-2.901-7.297-.307-.442-.587-.788-.9-1.206l-1.903-2.3c-.764-.803-3.115-3.827-3.582-4.618-2.193-3.69-2.698-6.383-1.295-10.509.328-.969 1.034-2.441 1.536-3.193-.86.23-3.202 2.788-3.902 3.665-1.001 1.252-2.194 3.275-2.194 5.484ZM11.285 9.56l42.79 47.585"/></svg>