<svg xmlns="http://www.w3.org/2000/svg" width="1920" height="708" fill="none"><path fill="url(#a)" d="M1172 1691c280.74 121.78 722.85-70.27 1018-162 295.12-91.75 368.28-441.5 383-752.119 6.77-143.514-40.24-284.994-113.51-406.726C2333.28 160.497 2111.06-2.163 1866.5.146c-260.03 2.43-496.59 183.713-756.64 187.149-143.411 1.924-280.229-50.583-416.785-92.483-194.903-59.786-403.376-99.12-603.7-53.538-200.333 45.553-390.278 192.618-437.212 394.738-50.419 216.932-14.196 577.418 162.446 706.318C-8.71 1271.2-335.299 1535.63 266 1619c213.614 47.87 751.2 4.82 906 72Z"/><defs><linearGradient id="a" x1="2251.35" x2="175.481" y1="637.981" y2="477.511" gradientUnits="userSpaceOnUse"><stop stop-color="#00A9E7"/><stop offset="1" stop-color="#005AA4"/></linearGradient></defs></svg>