<svg width="1400" height="517" viewBox="0 0 1400 517" fill="none" xmlns="http://www.w3.org/2000/svg">
<path d="M854.583 1233.02C1059.29 1321.82 1381.66 1181.78 1596.88 1114.9C1812.07 1047.99 1865.41 792.969 1876.15 566.476C1881.08 461.83 1846.8 358.668 1793.38 269.905C1701.35 117.029 1539.31 -1.5771 1360.99 0.106696C1171.38 1.87879 998.893 134.064 809.273 136.569C704.702 137.972 604.939 99.6858 505.367 69.1335C363.25 25.5399 211.239 -3.14088 65.1692 30.0955C-80.9068 63.3111 -219.408 170.546 -253.631 317.925C-290.395 476.105 -263.982 738.959 -135.181 832.949C-6.35077 926.917 -244.489 1119.73 193.958 1180.52C349.719 1215.43 741.708 1184.04 854.583 1233.02Z" fill="url(#paint0_linear_917_5501)"/>
<defs>
<linearGradient id="paint0_linear_917_5501" x1="1641.61" y1="465.195" x2="127.955" y2="348.185" gradientUnits="userSpaceOnUse">
<stop stop-color="#00A9E7"/>
<stop offset="1" stop-color="#005AA4"/>
</linearGradient>
</defs>
</svg>
