<svg width="1920" height="708" viewBox="0 0 1920 708" fill="none" xmlns="http://www.w3.org/2000/svg">
<path d="M1172 1691C1452.74 1812.78 1894.85 1620.73 2190 1529C2485.12 1437.25 2558.28 1087.5 2573 776.881C2579.77 633.367 2532.76 491.887 2459.49 370.155C2333.28 160.497 2111.06 -2.16288 1866.5 0.146326C1606.47 2.57663 1369.91 183.859 1109.86 187.295C966.449 189.219 829.631 136.712 693.075 94.8117C498.172 35.0261 289.699 -4.30749 89.3748 41.2738C-110.958 86.8266 -300.903 233.892 -347.837 436.012C-398.256 652.944 -362.033 1013.43 -185.391 1142.33C-8.70967 1271.2 -335.299 1535.63 266 1619C479.614 1666.87 1017.2 1623.82 1172 1691Z" fill="url(#paint0_linear_822_16882)"/>
<defs>
<linearGradient id="paint0_linear_822_16882" x1="2251.35" y1="637.981" x2="175.481" y2="477.511" gradientUnits="userSpaceOnUse">
<stop stop-color="#00A9E7"/>
<stop offset="1" stop-color="#005AA4"/>
</linearGradient>
</defs>
</svg>
